<svg id="Layer_3" enable-background="new 0 0 64 64" height="512" viewBox="0 0 64 64" width="512" xmlns="http://www.w3.org/2000/svg">
    <path d="m42 21h-9v-3.522c2.41-1.617 4-4.365 4-7.478v-8c0-.553-.448-1-1-1-4.962 0-9 4.037-9 9v8c0 .553.448 1 1 1 1.053 0 2.06-.191 3-.525v2.525h-9c-.552 0-1 .447-1 1v40c0 .553.448 1 1 1h20c.552 0 1-.447 1-1v-40c0-.553-.448-1-1-1zm-13-4.071v-6.929c0-3.521 2.612-6.442 6-6.929v6.929c0 1.901-.766 3.623-2 4.886v-2.886h-2v4.317c-.623.297-1.293.51-2 .612zm12 44.071h-18v-38h18z"/>
    <path d="m31 41h2v-10h4v-2h-4v-4h-2v4h-4v2h4z"/>
    <path d="m62 35h-7v-3.264c1.811-1.267 3-3.364 3-5.736v-4c0-.553-.448-1-1-1-3.86 0-7 3.141-7 7v4c0 .553.448 1 1 1 .695 0 1.366-.105 2-.295v2.295h-7c-.552 0-1 .447-1 1v26c0 .553.448 1 1 1h16c.552 0 1-.447 1-1v-26c0-.553-.448-1-1-1zm-10-4.101v-2.899c0-2.415 1.721-4.435 4-4.899v2.899c0 1.116-.38 2.139-1 2.972v-1.972h-2v3.568c-.319.141-.65.26-1 .331zm9 6.101v2h-1c-1.654 0-3 1.346-3 3 0 .552-.449 1-1 1s-1-.448-1-1c0-1.654-1.346-3-3-3s-3 1.346-3 3v4c0 .552-.449 1-1 1h-1v-10zm-14 24v-12h1c1.654 0 3-1.346 3-3v-4c0-.552.449-1 1-1s1 .448 1 1c0 1.654 1.346 3 3 3s3-1.346 3-3c0-.552.449-1 1-1h1v20z"/>
    <path d="m18 35h-7v-3.264c1.811-1.267 3-3.364 3-5.736v-4c0-.553-.448-1-1-1-3.86 0-7 3.141-7 7v4c0 .553.448 1 1 1 .695 0 1.366-.105 2-.295v2.295h-7c-.552 0-1 .447-1 1v26c0 .553.448 1 1 1h16c.552 0 1-.447 1-1v-26c0-.553-.448-1-1-1zm-10-4.101v-2.899c0-2.415 1.721-4.435 4-4.899v2.899c0 1.116-.38 2.139-1 2.972v-1.972h-2v3.568c-.319.141-.65.26-1 .331zm9 6.101v2h-1c-1.654 0-3 1.346-3 3 0 .552-.449 1-1 1s-1-.448-1-1c0-1.654-1.346-3-3-3s-3 1.346-3 3v4c0 .552-.449 1-1 1h-1v-10zm-14 24v-12h1c1.654 0 3-1.346 3-3v-4c0-.552.449-1 1-1s1 .448 1 1c0 1.654 1.346 3 3 3s3-1.346 3-3c0-.552.449-1 1-1h1v20z"/>
</svg>
