<svg height="512pt" viewBox="-2 0 512 512" width="512pt" xmlns="http://www.w3.org/2000/svg"><path d="m316.875 228.570312c0 20.199219-16.375 36.574219-36.574219 36.574219-20.195312 0-36.570312-16.375-36.570312-36.574219 0-20.195312 16.375-36.570312 36.570312-36.570312 20.199219 0 36.574219 16.375 36.574219 36.570312zm0 0"/><path d="m111.980469 408.90625c-14.582031-13.617188-27.472657-28.9375-38.398438-45.632812-4.652343 15.261718-5.898437 31.359374-3.65625 47.160156 5.757813 51.828125-16 67.8125-29.46875 72.71875-13.425781 4.3125-28.023437 2.996094-40.457031-3.65625 1.789062 4.382812 4.292969 8.433594 7.414062 11.988281 11.988282 13.621094 33.035157 20.515625 62.601563 20.515625 20.863281 0 33.683594-4.753906 41.5625-15.40625 3.121094-4.609375 5.753906-9.53125 7.863281-14.683594 1.582032-3.484375 3.171875-6.949218 4.984375-10.292968 7.734375-13.59375 20.609375-23.507813 35.730469-27.511719-17.128906-9.582031-33.0625-21.167969-47.460938-34.503907-.25-.21875-.488281-.449218-.714843-.695312zm0 0"/><path d="m280.300781 118.855469c-60.59375 0-109.714843 49.121093-109.714843 109.714843s49.121093 109.714844 109.714843 109.714844 109.714844-49.121094 109.714844-109.714844c-.066406-60.566406-49.148437-109.648437-109.714844-109.714843zm0 164.574219c-30.296875 0-54.855469-24.5625-54.855469-54.859376 0-30.296874 24.558594-54.855468 54.855469-54.855468s54.859375 24.558594 54.859375 54.855468c-.03125 30.285157-24.574218 54.828126-54.859375 54.859376zm0 0"/><path d="m456.695312 231.25c2.5-2.5 6.21875-3.332031 9.542969-2.140625l42.058594 15.023437c.347656-5.148437.585937-10.324218.585937-15.542968.011719-15.328125-1.519531-30.621094-4.570312-45.640625l-47.058594 17.636719c-1.039062.375-2.132812.566406-3.238281.558593-3.933594-.003906-7.425781-2.523437-8.667969-6.253906l-9.140625-27.429687c-1.597656-4.796876 1-9.980469 5.796875-11.574219 4.796875-1.597657 9.976563 1 11.574219 5.796875l6.152344 18.421875 40.136719-15.03125c-6.011719-20.71875-14.9375-40.476563-26.515626-58.679688l-11.710937 17.546875c-1.703125 2.542969-4.5625 4.066406-7.625 4.058594h-30.921875l2.535156 5.054688c2.253906 4.519531.421875 10.015624-4.097656 12.269531-4.519531 2.257812-10.011719.425781-12.269531-4.09375l-9.144531-18.285157c-1.414063-2.835937-1.261719-6.203124.40625-8.898437 1.664062-2.695313 4.609374-4.335937 7.777343-4.332031h40.824219l12.992188-19.457032c-14.160157-18.550781-31.050782-34.84375-50.101563-48.320312l-14.859375 18.625c-1.734375 2.171875-4.359375 3.4375-7.140625 3.4375h-23.878906l5.117187 15.398438c1.03125 3.101562.332032 6.519531-1.839844 8.964843-2.171874 2.445313-5.480468 3.546875-8.6875 2.890625-3.203124-.660156-5.8125-2.976562-6.84375-6.078125l-9.140624-27.429687c-.933594-2.792969-.460938-5.863282 1.265624-8.246094 1.726563-2.386719 4.492188-3.796875 7.4375-3.785156h32.171876l10.972656-13.796875c-25.386719-15.097657-53.480469-25.09375-82.699219-29.421875l10.972656 20.617187c1.402344 2.617188 1.445313 5.746094.121094 8.402344l-9.144531 18.285156c-2.257813 4.519531-7.75 6.351563-12.269532 4.097657-4.519531-2.257813-6.351562-7.75-4.097656-12.269532l7.03125-14.054687-14.488281-27.28125c-3.882813-.1953128-7.789063-.292969-11.714844-.292969-17.949219.0078125-35.839843 2.132812-53.292969 6.335938 2.476563 9.234374 4.734376 17.957031 6.0625 23.140624l22.691407 7.570313c3.003906 1.003906 5.273437 3.488281 6.003906 6.570313.726563 3.082031-.191406 6.320312-2.429687 8.5625l-18.285157 18.285156c-3.585937 3.464844-9.289062 3.414062-12.816406-.113282-3.527344-3.527343-3.574219-9.226562-.109375-12.816406l7.816406-7.816406-13.386718-4.480469c-2.949219-.976562-5.203126-3.386719-5.980469-6.398437 0 0-3.308594-13.113282-7.167969-27.503906-20.246094 6.613281-39.46875 16.03125-57.105469 27.976562v11.757812l15.609375 15.609376c1 1.003906 1.753906 2.226562 2.203125 3.574218l6.261719 18.75 18.75-6.242187c4.800781-1.597657 9.980469 1 11.578125 5.796875 1.59375 4.796875-1 9.976562-5.796875 11.574218l-27.429688 9.144532c-4.785156 1.589844-9.957031-.996094-11.554687-5.78125l-8.46875-25.378906-16.757813-16.796876c-1.714843-1.714843-2.679687-4.039062-2.679687-6.464843v-1.753907c-11.625 9.722657-22.265625 20.566407-31.769531 32.375l11.65625 27.28125 25.160156 16.777344c2.554688 1.691406 4.089844 4.546875 4.097656 7.609375v18.285157c0 5.046874-4.09375 9.140624-9.144531 9.140624s-9.140625-4.09375-9.140625-9.140624v-13.394532l-23.363281-15.542968c-1.472657-.984376-2.628907-2.375-3.328125-4.003907l-8.484375-19.851562c-8.136719 12.253906-15.066407 25.265625-20.6875 38.859375l16.609375 16.613281c2.378906 2.292969 3.332031 5.691406 2.496094 8.890625-.835938 3.195312-3.335938 5.691406-6.53125 6.527344-3.195313.839844-6.59375-.113282-8.890626-2.492188l-10.597656-10.585937c-4.914062 15.8125-8.082031 32.117187-9.453125 48.621093l22.996094 15.296876 4.503906-9.027344c1.546875-3.089844 4.703125-5.046875 8.15625-5.054688h18.285157c5.050781 0 9.144531 4.09375 9.144531 9.144532 0 5.046874-4.09375 9.140624-9.144531 9.140624h-12.632813l-6.566406 13.230469c-1.171875 2.347657-3.296875 4.082031-5.832031 4.753907-.78125.203124-1.585938.304687-2.394532.300781-1.804687 0-3.566406-.535157-5.066406-1.535157l-22.316406-14.855468c.222656 30.566406 6.605468 60.769531 18.769531 88.8125l10.441406-13.90625c1.726563-2.300782 4.4375-3.65625 7.3125-3.65625h27.429688v-18.285156c0-5.050782 4.09375-9.144532 9.144531-9.144532 5.046875 0 9.140625 4.09375 9.140625 9.144532v27.425781c0 5.050781-4.09375 9.144531-9.140625 9.144531h-32l-13.332031 17.753906c9.207031 16.820313 20.484375 32.425782 33.5625 46.445313l2.898437-11.5625c.820313-3.277344 3.382813-5.832031 6.65625-6.648438l36.570313-9.140625c4.847656-1.09375 9.675781 1.886719 10.878906 6.703125 1.203125 4.820313-1.660156 9.71875-6.453125 11.03125l-31.25 7.816407-4.167969 16.632812c13.417969 11.992188 28.199219 22.367188 44.039063 30.910156l17.371094-40.410156c1.132812-2.621094 3.421874-4.566406 6.191406-5.257812l36.570312-9.140626c4.847656-1.09375 9.675782 1.886719 10.878906 6.707032 1.203126 4.816406-1.664062 9.714844-6.453124 11.027344l-32.164063 8.046874-15.917969 37.027344c17.582032 7.730469 36.074219 13.1875 55.03125 16.25l-7.371094-9.847656c-1.621093-2.171875-2.199218-4.949219-1.574218-7.585938.625-2.640624 2.386718-4.863281 4.8125-6.074218l18.285156-9.144532c4.519531-2.253906 10.011719-.421874 12.269531 4.097657 2.257813 4.519531.425781 10.011719-4.09375 12.269531l-8.496093 4.242188 10.972656 14.710937c3.886718.1875 7.792968.285156 11.710937.285156 14.300781-.015625 28.566407-1.367187 42.617188-4.042969l-14.273438-28.441406c-.972656-1.953125-1.214843-4.1875-.6875-6.300781l9.144531-36.570313c1.3125-4.792968 6.210938-7.65625 11.03125-6.453124 4.820313 1.199218 7.796876 6.03125 6.707032 10.875l-8.320313 33.300781 14.628907 29.320312c17.867187-4.949219 35.0625-12.070312 51.199218-21.203125l-8.914062-17.875-23.828125-7.945312c-3.101563-1.03125-5.417969-3.640625-6.074219-6.84375-.660156-3.203125.441406-6.515625 2.886719-8.683594 2.445312-2.171875 5.863281-2.875 8.96875-1.84375l27.425781 9.144531c2.300781.761719 4.207031 2.40625 5.296875 4.570313l9.863281 19.804687c10.617188-7.210937 20.617188-15.296875 29.886719-24.175781l-26.21875-21.027344c-1.03125-.832031-1.871094-1.875-2.46875-3.054687l-9.144531-18.285157c-.585938-1.246093-.882813-2.609374-.867188-3.984374v-27.429688c0-5.050781 4.09375-9.144531 9.140625-9.144531 5.050781 0 9.144531 4.09375 9.144531 9.144531v25.269531l7.3125 14.558594 26.03125 20.816406c9.546876-10.675781 18.074219-22.222656 25.472657-34.488281l-25.089844-8.335938c-2.527344-.832031-4.566406-2.726562-5.585937-5.183593-1.019532-2.460938-.914063-5.242188.285156-7.617188l5.054687-10.113281-10.140625-4.964844c-4.519531-2.253906-6.351562-7.75-4.09375-12.269531 2.257813-4.519531 7.75-6.351563 12.269532-4.09375l18.285156 9.140625c2.171875 1.085938 3.820312 2.984375 4.589844 5.289062.769531 2.300782.589843 4.8125-.496094 6.980469l-4.433594 8.851563 18.230469 6.050781c10.492187-21.097656 17.628906-43.707031 21.15625-67.007813l-40.757813-14.617187-5.054687 5.054687c-3.589844 3.464844-9.289063 3.417969-12.816407-.109374-3.527343-3.527344-3.578124-9.230469-.113281-12.816407zm-176.394531 125.320312c-70.691406 0-128-57.304687-128-128 0-70.691406 57.308594-128 128-128 70.695313 0 128 57.308594 128 128-.074219 70.664063-57.339843 127.925782-128 128zm0 0"/></svg>