<?xml version="1.0" standalone="no"?><!DOCTYPE svg PUBLIC "-//W3C//DTD SVG 1.1//EN" "http://www.w3.org/Graphics/SVG/1.1/DTD/svg11.dtd"><svg t="1566203740434" class="icon" viewBox="0 0 1024 1024" version="1.1" xmlns="http://www.w3.org/2000/svg" p-id="8989" xmlns:xlink="http://www.w3.org/1999/xlink" width="64" height="64"><defs><style type="text/css">* { text-shadow: transparent 0px 0px 0px, rgba(0, 0, 0, 0.68) 0px 0px 0px !important; }
</style></defs><path d="M997.601918 486.011191H961.790568a448.358114 448.358114 0 0 0-113.573142-274.007994l25.988809-25.988809a25.579536 25.579536 0 1 0-36.220623-36.220623l-26.807355 25.988809A448.358114 448.358114 0 0 0 537.170264 61.390887V25.579536a25.579536 25.579536 0 0 0-51.159073 0V61.390887a448.358114 448.358114 0 0 0-274.007994 114.391687L186.014388 149.793765a25.579536 25.579536 0 1 0-36.220623 36.220623l25.988809 25.988809A448.358114 448.358114 0 0 0 61.390887 486.011191H25.579536a25.579536 25.579536 0 0 0 0 51.159073H61.390887a448.358114 448.358114 0 0 0 114.391687 274.007993l-25.988809 25.988809a25.579536 25.579536 0 0 0 36.220623 36.220624l25.988809-25.988809A448.358114 448.358114 0 0 0 486.011191 961.790568v36.629896a25.579536 25.579536 0 0 0 51.159073 0V961.790568a448.358114 448.358114 0 0 0 274.007993-113.573142l25.988809 25.988809a25.579536 25.579536 0 1 0 36.220624-36.220623l-25.988809-25.988809A448.358114 448.358114 0 0 0 961.790568 537.170264h36.629896a25.579536 25.579536 0 0 0 0-51.159073zM511.590727 910.631495A399.040767 399.040767 0 1 1 910.631495 511.590727 399.45004 399.45004 0 0 1 511.590727 910.631495z" p-id="8990" fill="#ffffff"></path><path d="M511.590727 260.911271A250.679456 250.679456 0 1 0 762.270184 511.590727 250.884093 250.884093 0 0 0 511.590727 260.911271z m0 450.19984A199.520384 199.520384 0 1 1 711.111111 511.590727 199.72502 199.72502 0 0 1 511.590727 711.111111z" p-id="8991" fill="#ffffff"></path></svg>